<svg width="275" height="60" xmlns="http://www.w3.org/2000/svg">
 <g>
  <title>Layer 1</title>
  <g id="svg_1" stroke="null">
   <g id="svg_3" filter="url(#svg_2)" stroke="null">
    <path id="svg_4" d="m47.96986,38.86799l-10.7242,-34.35081c-0.6406,-2.0519 -2.5406,-3.44919 -4.6902,-3.44919c-2.6164,0 -4.7739,2.05036 -4.9071,4.66341l-1.3083,25.67579c-0.0464,0.9119 0.0636,1.8251 0.3253,2.6999l5.8216,19.4608c0.5066,1.6935 2.0646,2.8536 3.8322,2.8536l5.4115,0c1.741,0 3.2821,-1.1261 3.811,-2.7849l2.4064,-7.5472c0.7485,-2.3478 0.7561,-4.8691 0.0218,-7.2214z" fill="#ff0000"/>
    <path id="svg_6" d="m47.96986,38.86799l-10.7242,-34.35081c-0.6406,-2.0519 -2.5406,-3.44919 -4.6902,-3.44919c-2.6164,0 -4.7739,2.05036 -4.9071,4.66341l-1.3083,25.67579c-0.0464,0.9119 0.0636,1.8251 0.3253,2.6999l5.8216,19.4608c0.5066,1.6935 2.0646,2.8536 3.8322,2.8536l5.4115,0c1.741,0 3.2821,-1.1261 3.811,-2.7849l2.4064,-7.5472c0.7485,-2.3478 0.7561,-4.8691 0.0218,-7.2214z" fill="#ff0000"/>
   </g>
   <defs transform="translate(0 -0.381653) translate(0 -0.381653) translate(-0.763307 1.14496) translate(0.763307 -2.67157) translate(0 -0.763307) translate(-154 -130) translate(2 73) translate(73 13) translate(1 0) translate(-75 -46) translate(-186 -224) translate(265.421 0) translate(0 272.121)" fill="#ff0000">
    <filter id="svg_2" x="24.9083" y="0" width="22.1854" height="55.3535" filterUnits="userSpaceOnUse" color-interpolation-filters="sRGB" fill="#ff0000"/>
   </defs>
   <text fill="#ff0000" x="157.32433" y="51.78938" id="svg_5" stroke-width="0" font-size="24" font-family="'Sacramento'" text-anchor="start" xml:space="preserve" transform="matrix(2.77952 0 0 2.77952 -305.13 -92.811)" font-weight="normal" font-style="normal">iris</text>
   <g id="svg_9" stroke="null">
    <path id="svg_10" d="m124.02641,8.73127c6.7035,4.51356 12.47754,11.05791 16.85742,19.00916l0.42653,0.77666l-0.42653,0.7703c-4.37987,7.95125 -10.16029,14.4956 -16.85742,19.00916c-6.53798,4.40534 -13.96084,6.88811 -21.82934,6.88811c-7.86849,0 -15.29136,-2.48278 -21.82297,-6.88175c-6.70986,-4.51993 -12.48391,-11.06427 -16.86378,-19.01552l-0.42653,-0.7703l0.42653,-0.77666c4.37987,-7.95125 10.15392,-14.4956 16.85742,-19.00916c6.53798,-4.39897 13.96084,-6.88175 21.82934,-6.88175c7.86849,0 15.28499,2.48278 21.82934,6.88175l0,0l-0.00001,0zm-22.24313,7.23188l2.59737,0.24828c-0.92308,1.38781 -1.47057,3.06846 -1.47057,4.88279c0,4.76184 3.73053,8.61969 8.33958,8.61969c1.47693,0 2.86474,-0.3947 4.06793,-1.09497c0.0191,0.29921 0.03183,0.59841 0.03183,0.90399c0,7.49289 -6.07325,13.56615 -13.56615,13.56615c-7.49289,0 -13.56615,-6.07325 -13.56615,-13.56615c0,-7.48653 6.07325,-13.55978 13.56615,-13.55978l0,0l0,0l0.00001,0zm30.69094,12.55394c-3.50135,-6.14965 -8.02764,-11.20433 -13.23511,-14.71204c-5.12471,-3.45042 -10.91785,-5.39845 -17.04203,-5.39845c-6.11782,0 -11.91096,1.94802 -17.03567,5.39845c-5.20747,3.50772 -9.73376,8.5624 -13.24148,14.71204c3.50135,6.14965 8.03401,11.20433 13.24148,14.70568c5.12471,3.45042 10.91785,5.39845 17.03567,5.39845c6.12418,0 11.91096,-1.94802 17.04203,-5.39845c5.20747,-3.50135 9.73376,-8.55603 13.23511,-14.70568l0,0z" fill="#ff0000"/>
   </g>
  </g>
  <ellipse fill="#ff0000" stroke="null" cx="142.46149" cy="9.58155" id="svg_8" rx="6.48811" ry="6.48811"/>
  <ellipse fill="#ff0000" stroke="null" cx="184.44335" cy="9.1999" id="svg_7" rx="6.48811" ry="6.48811"/>
 </g>
</svg>